<svg width="1000" height="1000" viewBox="0 0 1000 1000" fill="none" xmlns="http://www.w3.org/2000/svg">
<g clip-path="url(#clip0_267_58)">
<rect width="1000" height="1000" fill="white"/>
<path d="M42.892 551.007H7.11012V457.472H141.449V815.292H42.892V551.007ZM518.067 551.007H289.565V721.129H518.067V551.007ZM191.635 815.292V457.472H616.624V815.292H191.635Z" fill="#202148"/>
<path d="M42.892 101.716H7.11012V8.1808H141.449V366H42.892V101.716ZM518.067 101.716H289.565V271.837H518.067V101.716ZM191.635 366V8.1808H616.624V366H191.635Z" fill="#202148"/>
<path d="M779.784 195.432H708.22V8.36159H976.898V724H779.784V195.432Z" fill="#2196F3"/>
<rect x="728.125" y="584.645" width="291.457" height="150.661" fill="white"/>
<path d="M811.891 619.752H791.623L782.297 606.39H848.301V619.752H825.97V657.507H811.891V619.752ZM855.635 643.966H909.442V657.507H855.635V643.966ZM855.635 625.133H895.811V638.585H855.635V625.133ZM855.635 606.39H909.532V619.752H855.635V606.39ZM916.674 606.39H927.435L958.554 634.191V606.39H972.633V657.507H962.141L930.664 629.976V657.507H916.674V606.39Z" fill="#202148"/>
<path d="M811.891 697.773H791.623L782.297 684.411H848.301V697.773H825.97V735.528H811.891V697.773ZM855.635 721.987H909.442V735.528H855.635V721.987ZM855.635 703.154H895.811V716.606H855.635V703.154ZM855.635 684.411H909.532V697.773H855.635V684.411ZM916.674 684.411H927.435L958.554 712.212V684.411H972.633V735.528H962.141L930.664 707.997V735.528H916.674V684.411Z" fill="#202148"/>
<path d="M834.131 764.225C837.898 764.225 840.558 765.182 842.113 767.095C843.727 769.008 844.534 771.489 844.534 774.538V804.222C844.534 807.63 843.518 810.35 841.485 812.383C839.452 814.356 836.642 815.342 833.055 815.342H795.211C791.623 815.342 788.814 814.356 786.781 812.383C784.748 810.35 783.732 807.63 783.732 804.222V784.851H797.811V801.98H830.454V777.587H783.732V774.538C783.732 771.489 784.509 769.008 786.063 767.095C787.678 765.182 790.368 764.225 794.134 764.225H834.131ZM847.717 764.225H867.805L898.924 792.026V764.225H913.003V815.342H902.511L871.033 787.811V815.342H857.044V777.587L847.717 764.225ZM982.143 764.225V777.587H928.156L918.83 764.225H982.143ZM928.156 801.801H982.053V815.342H928.156V801.801ZM928.156 782.968H968.422V796.42H928.156V782.968Z" fill="#202148"/>
<path d="M81.2 995H50V965.2H81.2V995ZM187.061 922.8V952.8H128.661V995H97.4609V922.8H187.061ZM97.4609 881H217.461V910.8H97.4609V881ZM233.594 881H264.794V995H233.594V881ZM281.055 881H305.055L374.455 943V881H405.855V995H382.455L312.255 933.6V995H281.055V881ZM418.87 995L451.07 935.2H499.87L491.87 920H459.67L480.07 881H506.07L567.27 995H532.07L515.47 965H470.87L454.07 995H418.87ZM580.078 881H604.078L673.478 943V881H704.878V995H681.478L611.278 933.6V995H580.078V881ZM843.494 965.2H752.494V910.8H843.494V881H744.294C735.894 881 729.894 883.133 726.294 887.4C722.827 891.667 721.094 897.2 721.094 904V970.2C721.094 977.8 723.36 983.867 727.894 988.4C732.427 992.8 738.694 995 746.694 995H843.494V965.2ZM859.966 964.8H979.966V995H859.966V964.8ZM859.966 922.8H949.566V952.8H859.966V922.8ZM859.966 881H980.166V910.8H859.966V881Z" fill="#464647" fill-opacity="0.74"/>
</g>
<defs>
<clipPath id="clip0_267_58">
<rect width="1000" height="1000" fill="white"/>
</clipPath>
</defs>
</svg>
