<svg width="227" height="227" viewBox="0 0 227 227" fill="none" xmlns="http://www.w3.org/2000/svg">
<path d="M0 31.7827V63.5625H31.7798H63.5595V31.7827V0.00295167H31.7798H0V31.7827ZM54.4796 31.7827V54.4826H31.7798H9.07994V31.7827V9.08289H31.7798H54.4796V31.7827Z" fill="white"/>
<path d="M18.1641 31.7824V45.4023H31.784H45.4039V31.7824V18.1625H31.784H18.1641V31.7824Z" fill="white"/>
<path d="M81.7194 4.54156V9.08153H86.2594H90.7994V13.6215V18.1615H81.7194H72.6395V22.7014V27.2414H77.1795H81.7194V31.7814V36.3213H86.2594H90.7994V40.8613V45.4013H86.2594H81.7194V49.9412V54.4812H77.1795H72.6395V63.5611V72.6411H54.4796H36.3197V77.1811V81.721H31.7798H27.2398V77.1811V72.6411H13.6199H0V77.1811V81.721H4.53997H9.07994V86.261V90.801H4.53997H0V95.3409V99.8809H4.53997H9.07994V95.3409V90.801H22.6998H36.3197V95.3409V99.8809H27.2398H18.1599V104.421V108.961H27.2398H36.3197V113.501V118.041H40.8597H45.3997V113.501V108.961H49.9396H54.4796V113.501V118.041H59.0196H63.5596V122.581V127.121H49.9396H36.3197V131.661V136.201H31.7798H27.2398V131.661V127.121H22.6998H18.1599V131.661V136.201H13.6199H9.07994V131.661V127.121H4.53997H0V131.661V136.201H4.53997H9.07994V140.741V145.281H4.53997H0V149.821V154.361H4.53997H9.07994V149.821V145.281H13.6199H18.1599V140.741V136.201H22.6998H27.2398V145.281V154.361H36.3197H45.3997V149.821V145.281H40.8597H36.3197V140.741V136.201H49.9396H63.5596V140.741V145.281H59.0196H54.4796V149.821V154.361H59.0196H63.5596V149.821V145.281H68.0995H72.6395V167.98V190.68H77.1795H81.7194V195.22V199.76H77.1795H72.6395V213.38V227H77.1795H81.7194V222.46V217.92H86.2594H90.7994V222.46V227H99.8793H108.959V222.46V217.92H118.039H127.119V222.46V227H131.659H136.199V213.38V199.76H131.659H127.119V195.22V190.68H122.579H118.039V186.14V181.6H113.499H108.959V177.06V172.52H104.419H99.8793V167.98V163.44H104.419H108.959V154.361V145.281H118.039H127.119V149.821V154.361H131.659H136.199V167.98V181.6H140.739H145.279V186.14V190.68H149.819H154.359V195.22V199.76H149.819H145.279V213.38V227H149.819H154.359V222.46V217.92H158.899H163.439V222.46V227H172.519H181.599V222.46V217.92H190.679H199.759V213.38V208.84H195.219H190.679V204.3V199.76H199.759H208.839V195.22V190.68H217.918H226.998V186.14V181.6H217.918H208.839V186.14V190.68H204.299H199.759V167.98V145.281H195.219H190.679V140.741V136.201H186.139H181.599V118.041V99.8809H186.139H190.679V95.3409V90.801H186.139H181.599V86.261V81.721H177.059H172.519V77.1811V72.6411H158.899H145.279V68.1011V63.5611H149.819H154.359V54.4812V45.4013H149.819H145.279V40.8613V36.3213H140.739H136.199V31.7814V27.2414H140.739H145.279V13.6215V0.0015954H136.199H127.119V4.54156V9.08153H122.579H118.039V4.54156V0.0015954H113.499H108.959V4.54156V9.08153H99.8793H90.7994V4.54156V0.0015954H86.2594H81.7194V4.54156ZM136.199 18.1615V27.2414H131.659H127.119V31.7814V36.3213H122.579H118.039V40.8613V45.4013H122.579H127.119V54.4812V63.5611H131.659H136.199V59.0212V54.4812H140.739H145.279V59.0212V63.5611H140.739H136.199V72.6411V81.721H140.739H145.279V113.501V145.281H140.739H136.199V140.741V136.201H127.119H118.039V131.661V127.121H122.579H127.119V118.041V108.961H131.659H136.199V99.8809V90.801H131.659H127.119V77.1811V63.5611H122.579H118.039V59.0212V54.4812H113.499H108.959V63.5611V72.6411H113.499H118.039V90.801V108.961H113.499H108.959V113.501V118.041H104.419H99.8793V127.121V136.201H104.419H108.959V140.741V145.281H104.419H99.8793V149.821V154.361H90.7994H81.7194V149.821V145.281H77.1795H72.6395V140.741V136.201H81.7194H90.7994V131.661V127.121H81.7194H72.6395V122.581V118.041H77.1795H81.7194V108.961V99.8809H72.6395H63.5596V104.421V108.961H59.0196H54.4796V104.421V99.8809H59.0196H63.5596V95.3409V90.801H49.9396H36.3197V86.261V81.721H49.9396H63.5596V86.261V90.801H72.6395H81.7194V81.721V72.6411H86.2594H90.7994V81.721V90.801H99.8793H108.959V81.721V72.6411H104.419H99.8793V63.5611V54.4812H95.3393H90.7994V59.0212V63.5611H86.2594H81.7194V59.0212V54.4812H86.2594H90.7994V49.9412V45.4013H95.3393H99.8793V40.8613V36.3213H104.419H108.959V31.7814V27.2414H104.419H99.8793V22.7014V18.1615H104.419H108.959V22.7014V27.2414H113.499H118.039V22.7014V18.1615H122.579H127.119V13.6215V9.08153H131.659H136.199V18.1615ZM163.439 90.801V99.8809H167.979H172.519V104.421V108.961H167.979H163.439V122.581V136.201H172.519H181.599V140.741V145.281H167.979H154.359V127.121V108.961H158.899H163.439V104.421V99.8809H158.899H154.359V90.801V81.721H158.899H163.439V90.801ZM45.3997 104.421V108.961H40.8597H36.3197V104.421V99.8809H40.8597H45.3997V104.421ZM181.599 167.98V181.6H167.979H154.359V167.98V154.361H167.979H181.599V167.98ZM90.7994 172.52V181.6H99.8793H108.959V186.14V190.68H99.8793H90.7994V186.14V181.6H86.2594H81.7194V172.52V163.44H86.2594H90.7994V172.52ZM172.519 195.22V199.76H177.059H181.599V208.84V217.92H172.519H163.439V204.3V190.68H167.979H172.519V195.22ZM99.8793 204.3V208.84H104.419H108.959V213.38V217.92H99.8793H90.7994V208.84V199.76H95.3393H99.8793V204.3ZM127.119 204.3V208.84H122.579H118.039V204.3V199.76H122.579H127.119V204.3Z" fill="white"/>
<path d="M81.7188 95.3389V99.8789H86.2587H90.7987V95.3389V90.799H86.2587H81.7188V95.3389Z" fill="white"/>
<path d="M99.8828 104.421V108.961H104.423H108.963V104.421V99.881H104.423H99.8828V104.421Z" fill="white"/>
<path d="M163.438 167.983V172.523H167.977H172.517V167.983V163.444H167.977H163.438V167.983Z" fill="white"/>
<path d="M163.438 31.7827V63.5625H195.217H226.997V31.7827V0.00295167H195.217H163.438V31.7827ZM217.917 31.7827V54.4826H195.217H172.517V31.7827V9.08289H195.217H217.917V31.7827Z" fill="white"/>
<path d="M181.602 31.7824V45.4023H195.221H208.841V31.7824V18.1625H195.221H181.602V31.7824Z" fill="white"/>
<path d="M199.758 77.1827V81.7227H204.298H208.838V77.1827V72.6427H204.298H199.758V77.1827Z" fill="white"/>
<path d="M217.912 86.2617V90.8016H208.832H199.752V95.3416V99.8816H204.292H208.832V108.962V118.041H213.372H217.912V122.581V127.121H208.832H199.752V118.041V108.962H195.212H190.672V118.041V127.121H195.212H199.752V131.661V136.201H204.292H208.832V140.741V145.281H213.372H217.912V140.741V136.201H222.452H226.992V122.581V108.962H222.452H217.912V104.422V99.8816H222.452H226.992V90.8016V81.7217H222.452H217.912V86.2617Z" fill="white"/>
<path d="M208.836 163.444V172.523H217.916H226.996V163.444V154.364H217.916H208.836V163.444Z" fill="white"/>
<path d="M0 195.22V227H31.7798H63.5595V195.22V163.44H31.7798H0V195.22ZM54.4796 195.22V217.92H31.7798H9.07994V195.22V172.52H31.7798H54.4796V195.22Z" fill="white"/>
<path d="M18.1641 195.224V208.844H31.784H45.4039V195.224V181.604H31.784H18.1641V195.224Z" fill="white"/>
<path d="M118.039 167.983V172.523H122.579H127.119V167.983V163.444H122.579H118.039V167.983Z" fill="white"/>
<path d="M217.916 204.3V208.84H213.376H208.836V217.92V227H217.916H226.996V222.46V217.92H222.456H217.916V213.38V208.84H222.456H226.996V204.3V199.76H222.456H217.916V204.3Z" fill="white"/>
</svg>
