<svg width="189" height="167" viewBox="0 0 189 167" fill="none" xmlns="http://www.w3.org/2000/svg">
<path d="M7.35859 111.742H0V92.5519H27.627V165.964H7.35859V111.742Z" fill="white"/>
<path d="M105.079 111.742H58.087V146.645H105.079V111.742ZM37.9478 165.964V92.5519H125.347V165.964H37.9478Z" fill="white"/>
<path d="M7.35859 19.5633H0V0.373236H27.627V73.7851H7.35859V19.5633Z" fill="white"/>
<path d="M105.079 19.5633H58.087V54.4662H105.079V19.5633ZM37.9478 73.7851V0.373236H125.347V73.7851H37.9478Z" fill="white"/>
<path d="M147.385 38.3802H132.668V0H187.921V119.669H147.385V38.3802Z" fill="white"/>
<path d="M153.987 126.872H149.819L147.901 124.13H161.475V126.872H156.883V134.618H153.987V126.872Z" fill="white"/>
<path d="M162.983 131.84H174.049V134.618H162.983V131.84ZM162.983 127.976H171.246V130.736H162.983V127.976ZM162.983 124.13H174.067V126.872H162.983V124.13Z" fill="white"/>
<path d="M175.536 124.13H177.749L184.149 129.834V124.13H187.044V134.618H184.887L178.413 128.969V134.618H175.536V124.13Z" fill="white"/>
<path d="M153.987 142.879H149.819L147.901 140.138H161.475V142.879H156.883V150.625H153.987V142.879Z" fill="white"/>
<path d="M162.983 147.847H174.049V150.625H162.983V147.847ZM162.983 143.983H171.246V146.743H162.983V143.983ZM162.983 140.138H174.067V142.879H162.983V140.138Z" fill="white"/>
<path d="M175.536 140.138H177.749L184.149 145.841V140.138H187.044V150.625H184.887L178.413 144.976V150.625H175.536V140.138Z" fill="white"/>
<path d="M158.561 156.513C159.336 156.513 159.883 156.709 160.203 157.101C160.535 157.494 160.701 158.003 160.701 158.628V164.719C160.701 165.418 160.492 165.976 160.074 166.393C159.656 166.798 159.078 167 158.34 167H150.557C149.819 167 149.242 166.798 148.824 166.393C148.406 165.976 148.197 165.418 148.197 164.719V160.744H151.092V164.259H157.805V159.254H148.197V158.628C148.197 158.003 148.356 157.494 148.676 157.101C149.008 156.709 149.561 156.513 150.336 156.513H158.561Z" fill="white"/>
<path d="M161.355 156.513H165.486L171.886 162.216V156.513H174.781V167H172.624L166.15 161.352V167H163.273V159.254L161.355 156.513Z" fill="white"/>
<path d="M189 156.513V159.254H177.898L175.98 156.513H189ZM177.898 164.222H188.982V167H177.898V164.222ZM177.898 160.358H186.178V163.118H177.898V160.358Z" fill="white"/>
</svg>
