<svg width="1500" height="1500" viewBox="0 0 1500 1500" fill="none" xmlns="http://www.w3.org/2000/svg">
<g clip-path="url(#clip0_267_41)">
<rect width="1500" height="1500" fill="white"/>
<path d="M305.892 898.007H270.11V804.472H404.449V1162.29H305.892V898.007ZM781.067 898.007H552.565V1068.13H781.067V898.007ZM454.635 1162.29V804.472H879.624V1162.29H454.635Z" fill="#202148"/>
<path d="M305.892 448.716H270.11V355.181H404.449V713H305.892V448.716ZM781.067 448.716H552.565V618.837H781.067V448.716ZM454.635 713V355.181H879.624V713H454.635Z" fill="#202148"/>
<path d="M1042.78 535.432H971.22V348.362H1239.9V1064H1042.78V535.432Z" fill="#2196F3"/>
<rect x="991.125" y="931.645" width="291.457" height="150.661" fill="white"/>
<path d="M1074.89 966.752H1054.62L1045.3 953.39H1111.3V966.752H1088.97V1004.51H1074.89V966.752ZM1118.63 990.966H1172.44V1004.51H1118.63V990.966ZM1118.63 972.133H1158.81V985.585H1118.63V972.133ZM1118.63 953.39H1172.53V966.752H1118.63V953.39ZM1179.67 953.39H1190.44L1221.55 981.191V953.39H1235.63V1004.51H1225.14L1193.66 976.976V1004.51H1179.67V953.39Z" fill="#202148"/>
<path d="M1074.89 1044.77H1054.62L1045.3 1031.41H1111.3V1044.77H1088.97V1082.53H1074.89V1044.77ZM1118.63 1068.99H1172.44V1082.53H1118.63V1068.99ZM1118.63 1050.15H1158.81V1063.61H1118.63V1050.15ZM1118.63 1031.41H1172.53V1044.77H1118.63V1031.41ZM1179.67 1031.41H1190.44L1221.55 1059.21V1031.41H1235.63V1082.53H1225.14L1193.66 1055V1082.53H1179.67V1031.41Z" fill="#202148"/>
<path d="M1097.13 1111.23C1100.9 1111.23 1103.56 1112.18 1105.11 1114.09C1106.73 1116.01 1107.53 1118.49 1107.53 1121.54V1151.22C1107.53 1154.63 1106.52 1157.35 1104.48 1159.38C1102.45 1161.36 1099.64 1162.34 1096.06 1162.34H1058.21C1054.62 1162.34 1051.81 1161.36 1049.78 1159.38C1047.75 1157.35 1046.73 1154.63 1046.73 1151.22V1131.85H1060.81V1148.98H1093.45V1124.59H1046.73V1121.54C1046.73 1118.49 1047.51 1116.01 1049.06 1114.09C1050.68 1112.18 1053.37 1111.23 1057.13 1111.23H1097.13ZM1110.72 1111.23H1130.81L1161.92 1139.03V1111.23H1176V1162.34H1165.51L1134.03 1134.81V1162.34H1120.04V1124.59L1110.72 1111.23ZM1245.14 1111.23V1124.59H1191.16L1181.83 1111.23H1245.14ZM1191.16 1148.8H1245.05V1162.34H1191.16V1148.8ZM1191.16 1129.97H1231.42V1143.42H1191.16V1129.97Z" fill="#202148"/>
</g>
<defs>
<clipPath id="clip0_267_41">
<rect width="1500" height="1500" fill="white"/>
</clipPath>
</defs>
</svg>
