<svg width="54" height="54" viewBox="0 0 54 54" fill="none" xmlns="http://www.w3.org/2000/svg">
<path d="M50.1589 27.0002C50.1589 39.5521 39.9836 49.7275 27.4317 49.7275C14.8797 49.7275 4.70439 39.5521 4.70439 27.0002C4.70439 14.4483 14.8797 4.27295 27.4317 4.27295C39.9836 4.27295 50.1589 14.4483 50.1589 27.0002Z" fill="white"/>
<path fill-rule="evenodd" clip-rule="evenodd" d="M27 2C40.7947 2 52 13.1827 52 27C52 40.7947 40.8173 52 27 52C13.2053 52 2 40.8173 2 27C2.01131 13.2053 13.194 2 27 2ZM29.9512 33.1737C29.9512 32.2352 29.725 31.5002 29.2614 30.9688C28.7978 30.4374 27.9837 29.9285 26.8191 29.4649C25.6658 28.9901 24.5916 28.5152 23.6079 28.0289C22.6242 27.5427 21.7761 26.9774 21.0638 26.3329C20.3514 25.6997 19.8087 24.9534 19.4242 24.1167C19.0511 23.28 18.8589 22.2623 18.8589 21.0638C18.8589 19.0624 19.5373 17.4116 20.8829 16.1226C22.2284 14.8223 24.0262 14.0647 26.2763 13.8611V11.1588H29.1031V13.9177C31.2628 14.2343 32.9702 15.1275 34.2026 16.5862C35.4351 18.0448 36.0683 19.8991 36.0683 22.1493H30.0642C30.0642 20.9168 29.8268 19.9783 29.3519 19.3112C28.877 18.6554 28.2099 18.3161 27.3279 18.3161C26.5477 18.3161 25.9371 18.5649 25.5075 19.0511C25.0778 19.5373 24.863 20.2157 24.863 21.0864C24.863 21.9683 25.1117 22.6581 25.6092 23.1669C26.1067 23.687 26.9095 24.1732 28.0063 24.6481C29.1144 25.1117 30.1434 25.5979 31.1271 26.1067C32.0995 26.6156 32.9475 27.1809 33.6599 27.8141C34.3722 28.4586 34.9263 29.2049 35.322 30.0529C35.7291 30.9009 35.9326 31.9299 35.9326 33.1171C35.9326 35.1411 35.2881 36.7919 34.0104 38.0696C32.7214 39.3474 30.9801 40.0936 28.7639 40.3085V42.8186H25.9484V40.2858C23.3704 40.0145 21.3804 39.1325 20.0122 37.6287C18.6328 36.1361 17.943 34.1574 17.943 31.7038H23.9132C23.9132 33.0606 24.2072 34.0782 24.8064 34.7906C25.3944 35.4916 26.2537 35.8422 27.3505 35.8422C28.1533 35.8422 28.7865 35.6047 29.2501 35.1185C29.7137 34.6662 29.9512 33.9991 29.9512 33.1737Z" fill="#39B54A"/>
<path d="M1 26.9992V27C1 41.3702 12.6536 53 27 53C41.3702 53 53 41.3464 53 27C53 12.6298 41.3464 1 27 1C12.6407 1 1.01176 12.6539 1 26.9992Z" stroke="white" stroke-width="2"/>
</svg>
