<svg width="248" height="228" viewBox="0 0 248 228" fill="none" xmlns="http://www.w3.org/2000/svg">
<rect width="248" height="228"/>
<path d="M21.6045 147.146H13V124.624H45.3046V210.784H21.6045V147.146Z" fill="#202148"/>
<path d="M135.87 147.146H80.9219V188.11H135.87V147.146ZM57.3728 210.784V124.624H159.57V210.784H57.3728Z" fill="#202148"/>
<path d="M21.6045 38.9606H13V16.438H45.3046V102.598H21.6045V38.9606Z" fill="#202148"/>
<path d="M135.87 38.9606H80.9219V79.9244H135.87V38.9606ZM57.3728 102.598V16.438H159.57V102.598H57.3728Z" fill="#202148"/>
<path d="M185.339 61.045H168.13V16H232.739V156.45H185.339V61.045Z" fill="#5244F2"/>
<path d="M193.059 164.904H188.186L185.943 161.686H201.815V164.904H196.445V173.995H193.059V164.904Z" fill="#5244F2"/>
<path d="M203.579 170.734H216.518V173.995H203.579V170.734ZM203.579 166.199H213.24V169.438H203.579V166.199ZM203.579 161.686H216.539V164.904H203.579V161.686Z" fill="#5244F2"/>
<path d="M218.257 161.686H220.844L228.328 168.38V161.686H231.713V173.995H229.19L221.621 167.365V173.995H218.257V161.686Z" fill="#5244F2"/>
<path d="M193.059 183.69H188.186L185.943 180.473H201.815V183.69H196.445V192.781H193.059V183.69Z" fill="#5244F2"/>
<path d="M203.579 189.521H216.518V192.781H203.579V189.521ZM203.579 184.986H213.24V188.225H203.579V184.986ZM203.579 180.473H216.539V183.69H203.579V180.473Z" fill="#5244F2"/>
<path d="M218.257 180.473H220.844L228.328 187.167V180.473H231.713V192.781H229.19L221.621 186.152V192.781H218.257V180.473Z" fill="#5244F2"/>
<path d="M198.408 199.691C199.313 199.691 199.953 199.922 200.327 200.382C200.715 200.843 200.909 201.441 200.909 202.175V209.322C200.909 210.143 200.665 210.798 200.176 211.287C199.687 211.762 199.011 212 198.149 212H189.048C188.186 212 187.51 211.762 187.021 211.287C186.532 210.798 186.288 210.143 186.288 209.322V204.658H189.674V208.782H197.523V202.909H186.288V202.175C186.288 201.441 186.475 200.843 186.849 200.382C187.237 199.922 187.884 199.691 188.79 199.691H198.408Z" fill="#5244F2"/>
<path d="M201.675 199.691H206.505L213.988 206.386V199.691H217.374V212H214.851L207.281 205.371V212H203.917V202.909L201.675 199.691Z" fill="#5244F2"/>
<path d="M234 199.691V202.909H221.018L218.775 199.691H234ZM221.018 208.739H233.978V212H221.018V208.739ZM221.018 204.205H230.701V207.444H221.018V204.205Z" fill="#5244F2"/>
</svg>
