<svg width="54" height="54" viewBox="0 0 54 54" fill="none" xmlns="http://www.w3.org/2000/svg">
<g clip-path="url(#clip0_5863_93030)">
<path d="M52.2195 33.2895L52.5291 32.0476H52.4973C55.1834 18.5311 46.8019 5.14717 33.2863 1.7778C19.3598 -1.69479 5.25218 6.78279 1.78119 20.7132C-1.69271 34.6408 6.78403 48.7493 20.7088 52.2218L20.7089 52.2218C34.6393 55.6952 48.747 47.2185 52.2195 33.2895Z" fill="#F7931A" stroke="white" stroke-width="2"/>
<path d="M38.0239 23.438C38.5215 20.111 35.9886 18.3226 32.525 17.1296L33.6486 12.623L30.9053 11.9394L29.8115 16.3274C29.0903 16.1475 28.3496 15.978 27.6135 15.81L28.7152 11.393L25.9736 10.7095L24.8494 15.2147C24.2526 15.0788 23.6664 14.9445 23.0977 14.803L23.1009 14.7888L19.3177 13.8441L18.588 16.7741C18.588 16.7741 20.6233 17.2407 20.5804 17.2694C21.6913 17.5467 21.8922 18.2821 21.8588 18.8649L20.579 23.9991C20.6554 24.0185 20.7547 24.0466 20.8642 24.0906C20.7726 24.0679 20.6752 24.0431 20.5742 24.0189L18.7802 31.2111C18.6444 31.5486 18.2998 32.0551 17.5232 31.8628C17.5506 31.9026 15.5293 31.3652 15.5293 31.3652L14.1672 34.5054L17.7372 35.3954C18.4014 35.5619 19.0522 35.7362 19.6931 35.9L18.5579 40.4584L21.2981 41.142L22.4223 36.632C23.1709 36.8352 23.8974 37.0227 24.6085 37.1994L23.4881 41.6881L26.2316 42.3716L27.3667 37.8218C32.0446 38.7072 35.5621 38.3502 37.0426 34.119C38.2357 30.7124 36.9833 28.7474 34.5222 27.4661C36.3147 27.0527 37.6649 25.8737 38.0249 23.4383L38.024 23.4377L38.0239 23.438ZM31.756 32.2271C30.9082 35.6338 25.1725 33.7923 23.3129 33.3305L24.8193 27.2915C26.6788 27.7557 32.6421 28.6744 31.7561 32.2271H31.756ZM32.6044 23.3886C31.831 26.4873 27.0571 24.913 25.5085 24.527L26.8743 19.05C28.4229 19.436 33.4101 20.1565 32.6047 23.3886H32.6044Z" fill="white"/>
</g>
<defs>
<clipPath id="clip0_5863_93030">
<rect width="54" height="54" fill="white"/>
</clipPath>
</defs>
</svg>
