<svg width="1000" height="1000" viewBox="0 0 1000 1000" fill="none" xmlns="http://www.w3.org/2000/svg">
<rect width="1000" height="1000" fill="white"/>
<path d="M176.15 600.454H150V532.197H248.177V793.314H176.15V600.454Z" fill="#202148"/>
<path d="M523.413 600.454H356.421V724.599H523.413V600.454ZM284.853 793.314V532.197H595.439V793.314H284.853Z" fill="#202148"/>
<path d="M176.15 272.585H150V204.328H248.177V465.445H176.15V272.585Z" fill="#202148"/>
<path d="M523.413 272.585H356.421V396.73H523.413V272.585ZM284.853 465.445V204.328H595.439V465.445H284.853Z" fill="#202148"/>
<path d="M673.753 339.514H621.454V203H817.807V725.235H673.753V339.514Z" fill="#5244F2"/>
<path d="M636 628.649H849V738.594H636V628.649Z" fill="white"/>
<path d="M697.217 654.269H682.406L675.59 644.518H723.826V654.269H707.507V681.82H697.217V654.269Z" fill="#202148"/>
<path d="M729.186 671.938H768.509V681.82H729.186V671.938ZM729.186 658.195H758.547V668.012H729.186V658.195ZM729.186 644.518H768.574V654.269H729.186V644.518Z" fill="#202148"/>
<path d="M773.794 644.518H781.658L804.4 664.805V644.518H814.69V681.82H807.022L784.018 661.729V681.82H773.794V644.518Z" fill="#202148"/>
<path d="M697.217 711.204H682.406L675.59 701.453H723.826V711.204H707.507V738.756H697.217V711.204Z" fill="#202148"/>
<path d="M729.186 728.874H768.509V738.756H729.186V728.874ZM729.186 715.131H758.547V724.947H729.186V715.131ZM729.186 701.453H768.574V711.204H729.186V701.453Z" fill="#202148"/>
<path d="M773.794 701.453H781.658L804.4 721.741V701.453H814.69V738.756H807.022L784.018 718.665V738.756H773.794V701.453Z" fill="#202148"/>
<path d="M713.471 759.697C716.223 759.697 718.168 760.396 719.304 761.792C720.483 763.188 721.073 764.998 721.073 767.223V788.885C721.073 791.372 720.33 793.357 718.845 794.84C717.359 796.28 715.306 797 712.684 797H685.027C682.406 797 680.352 796.28 678.866 794.84C677.381 793.357 676.638 791.372 676.638 788.885V774.749H686.928V787.249H710.784V769.448H676.638V767.223C676.638 764.998 677.206 763.188 678.342 761.792C679.522 760.396 681.488 759.697 684.241 759.697H713.471Z" fill="#202148"/>
<path d="M723.399 759.697H738.08L760.822 779.985V759.697H771.111V797H763.443L740.439 776.909V797H730.215V769.448L723.399 759.697Z" fill="#202148"/>
<path d="M821.639 759.697V769.448H782.185L775.369 759.697H821.639ZM782.185 787.118H821.574V797H782.185V787.118ZM782.185 773.375H811.612V783.191H782.185V773.375Z" fill="#202148"/>
</svg>
