<svg width="1000" height="1000" viewBox="0 0 1000 1000" fill="none" xmlns="http://www.w3.org/2000/svg">
<g clip-path="url(#clip0_267_58)">
<rect width="1000" height="1000" fill="white"/>
<path d="M75.892 554.716H40.1101V461.181H174.449V819H75.892V554.716ZM551.067 554.716H322.565V724.837H551.067V554.716ZM224.635 819V461.181H649.624V819H224.635Z" fill="#202148"/>
<path d="M75.892 104.716H40.1101V11.1808H174.449V369H75.892V104.716ZM551.067 104.716H322.565V274.837H551.067V104.716ZM224.635 369V11.1808H649.624V369H224.635Z" fill="#202148"/>
<path d="M762.784 198.432H691.22V11.3616H959.898V727H762.784V198.432Z" fill="#5244F2"/>
<rect x="711.125" y="587.645" width="291.457" height="150.661" fill="white"/>
<path d="M794.891 622.753H774.623L765.297 609.391H831.301V622.753H808.97V660.508H794.891V622.753ZM838.635 646.966H892.442V660.508H838.635V646.966ZM838.635 628.134H878.811V641.586H838.635V628.134ZM838.635 609.391H892.532V622.753H838.635V609.391ZM899.674 609.391H910.435L941.554 637.191V609.391H955.633V660.508H945.141L913.664 632.976V660.508H899.674V609.391Z" fill="#5244F2"/>
<path d="M794.891 700.772H774.623L765.297 687.41H831.301V700.772H808.97V738.527H794.891V700.772ZM838.635 724.986H892.442V738.527H838.635V724.986ZM838.635 706.153H878.811V719.605H838.635V706.153ZM838.635 687.41H892.532V700.772H838.635V687.41ZM899.674 687.41H910.435L941.554 715.211V687.41H955.633V738.527H945.141L913.664 710.996V738.527H899.674V687.41Z" fill="#5244F2"/>
<path d="M817.131 767.225C820.898 767.225 823.558 768.181 825.113 770.094C826.727 772.008 827.534 774.489 827.534 777.538V807.222C827.534 810.629 826.518 813.35 824.485 815.382C822.452 817.355 819.642 818.342 816.055 818.342H778.211C774.623 818.342 771.814 817.355 769.781 815.382C767.748 813.35 766.732 810.629 766.732 807.222V787.851H780.811V804.98H813.454V780.587H766.732V777.538C766.732 774.489 767.509 772.008 769.063 770.094C770.678 768.181 773.368 767.225 777.134 767.225H817.131ZM830.717 767.225H850.805L881.924 795.025V767.225H896.003V818.342H885.511L854.033 790.81V818.342H840.044V780.587L830.717 767.225ZM965.143 767.225V780.587H911.156L901.83 767.225H965.143ZM911.156 804.8H965.053V818.342H911.156V804.8ZM911.156 785.968H951.422V799.42H911.156V785.968Z" fill="#5244F2"/>
<path d="M64.2 998H33V968.2H64.2V998ZM170.061 925.8V955.8H111.661V998H80.4609V925.8H170.061ZM80.4609 884H200.461V913.8H80.4609V884ZM216.594 884H247.794V998H216.594V884ZM264.055 884H288.055L357.455 946V884H388.855V998H365.455L295.255 936.6V998H264.055V884ZM401.87 998L434.07 938.2H482.87L474.87 923H442.67L463.07 884H489.07L550.27 998H515.07L498.47 968H453.87L437.07 998H401.87ZM563.078 884H587.078L656.478 946V884H687.878V998H664.478L594.278 936.6V998H563.078V884ZM826.494 968.2H735.494V913.8H826.494V884H727.294C718.894 884 712.894 886.133 709.294 890.4C705.827 894.667 704.094 900.2 704.094 907V973.2C704.094 980.8 706.36 986.867 710.894 991.4C715.427 995.8 721.694 998 729.694 998H826.494V968.2ZM842.966 967.8H962.966V998H842.966V967.8ZM842.966 925.8H932.566V955.8H842.966V925.8ZM842.966 884H963.166V913.8H842.966V884Z" fill="#464647" fill-opacity="0.74"/>
</g>
<defs>
<clipPath id="clip0_267_58">
<rect width="1000" height="1000" fill="white"/>
</clipPath>
</defs>
</svg>
