<svg width="1000" height="1000" viewBox="0 0 1000 1000" fill="none" xmlns="http://www.w3.org/2000/svg">
<rect width="1000" height="1000" fill="white"/>
<path d="M69.8913 631.007H34.1094V537.472H168.449V895.291H69.8913V631.007Z" fill="#202148"/>
<path d="M545.066 631.007H316.564V801.128H545.066V631.007ZM218.634 895.291V537.472H643.623V895.291H218.634Z" fill="#202148"/>
<path d="M69.8913 181.716H34.1094V88.1805H168.449V446H69.8913V181.716Z" fill="#202148"/>
<path d="M545.066 181.716H316.564V351.837H545.066V181.716ZM218.634 446V88.1805H643.623V446H218.634Z" fill="#202148"/>
<path d="M750.783 273.432H679.219V86.3613H947.898V802H750.783V273.432Z" fill="#5244F2"/>
<path d="M699.124 669.645H990.581V820.306H699.124V669.645Z" fill="white"/>
<path d="M782.89 704.752H762.623L753.296 691.39H819.3V704.752H796.97V742.507H782.89V704.752Z" fill="#5244F2"/>
<path d="M826.634 728.966H880.441V742.507H826.634V728.966ZM826.634 710.133H866.81V723.585H826.634V710.133ZM826.634 691.39H880.531V704.752H826.634V691.39Z" fill="#5244F2"/>
<path d="M887.673 691.39H898.435L929.553 719.19V691.39H943.633V742.507H933.14L901.663 714.976V742.507H887.673V691.39Z" fill="#5244F2"/>
<path d="M782.89 782.773H762.623L753.296 769.411H819.3V782.773H796.97V820.528H782.89V782.773Z" fill="#5244F2"/>
<path d="M826.634 806.986H880.441V820.528H826.634V806.986ZM826.634 788.154H866.81V801.606H826.634V788.154ZM826.634 769.411H880.531V782.773H826.634V769.411Z" fill="#5244F2"/>
<path d="M887.673 769.411H898.435L929.553 797.211V769.411H943.633V820.528H933.14L901.663 792.996V820.528H887.673V769.411Z" fill="#5244F2"/>
<path d="M805.131 849.225C808.897 849.225 811.558 850.182 813.112 852.095C814.726 854.008 815.533 856.489 815.533 859.538V889.222C815.533 892.63 814.517 895.35 812.484 897.383C810.451 899.356 807.642 900.342 804.054 900.342H766.21C762.623 900.342 759.813 899.356 757.78 897.383C755.747 895.35 754.731 892.63 754.731 889.222V869.851H768.811V886.98H801.454V862.587H754.731V859.538C754.731 856.489 755.508 854.008 757.063 852.095C758.677 850.182 761.367 849.225 765.134 849.225H805.131Z" fill="#5244F2"/>
<path d="M818.716 849.225H838.804L869.923 877.025V849.225H884.003V900.342H873.51L842.033 872.811V900.342H828.043V862.587L818.716 849.225Z" fill="#5244F2"/>
<path d="M953.142 849.225V862.587H899.155L889.829 849.225H953.142ZM899.155 886.8H953.052V900.342H899.155V886.8ZM899.155 867.968H939.421V881.42H899.155V867.968Z" fill="#5244F2"/>
</svg>
