<svg width="1000" height="1000" viewBox="0 0 1000 1000" fill="none" xmlns="http://www.w3.org/2000/svg">
<rect width="1000" height="1000" fill="white"/>
<path d="M188.126 562.892H162.16V494.984H259.648V754.768H188.126V562.892Z" fill="#202148"/>
<path d="M532.956 562.892H367.134V686.404H532.956V562.892ZM296.068 754.768V494.984H604.478V754.768H296.068Z" fill="#202148"/>
<path d="M188.126 236.909H162.16V169H259.648V428.784H188.126V236.909Z" fill="#202148"/>
<path d="M532.956 236.909H367.134V360.42H532.956V236.909ZM296.068 428.784V169H604.478V428.784H296.068Z" fill="#202148"/>
<path d="M690.226 304.948H638.293V169.131H833.27V688.7H690.226V304.948Z" fill="#5244F2"/>
<path d="M652.647 587.057H866V695.96H652.647V587.057Z" fill="white"/>
<path d="M714.147 612.646H699.439L692.67 602.945H740.569V612.646H724.364V640.057H714.147V612.646Z" fill="#5244F2"/>
<path d="M745.891 630.225H784.939V640.057H745.891V630.225ZM745.891 616.552H775.046V626.319H745.891V616.552ZM745.891 602.945H785.004V612.646H745.891V602.945Z" fill="#5244F2"/>
<path d="M790.187 602.945H797.996L820.579 623.128V602.945H830.796V640.057H823.182L800.339 620.068V640.057H790.187V602.945Z" fill="#5244F2"/>
<path d="M714.147 669.276H699.439L692.67 659.574H740.569V669.276H724.364V696.686H714.147V669.276Z" fill="#5244F2"/>
<path d="M745.891 686.855H784.939V696.686H745.891V686.855ZM745.891 673.182H775.046V682.948H745.891V673.182ZM745.891 659.574H785.004V669.276H745.891V659.574Z" fill="#5244F2"/>
<path d="M790.187 659.574H797.996L820.579 679.758V659.574H830.796V696.686H823.182L800.339 676.698V696.686H790.187V659.574Z" fill="#5244F2"/>
<path d="M730.286 716.93C733.02 716.93 734.95 717.625 736.078 719.014C737.25 720.403 737.835 722.204 737.835 724.418V745.969C737.835 748.443 737.098 750.418 735.623 751.894C734.148 753.326 732.108 754.042 729.505 754.042H702.042C699.439 754.042 697.399 753.326 695.924 751.894C694.449 750.418 693.712 748.443 693.712 745.969V731.905H703.929V744.341H727.618V726.631H693.712V724.418C693.712 722.204 694.276 720.403 695.404 719.014C696.575 717.625 698.528 716.93 701.261 716.93H730.286Z" fill="#5244F2"/>
<path d="M740.145 716.93H754.723L777.305 737.114V716.93H787.523V754.042H779.909L757.066 734.054V754.042H746.913V726.631L740.145 716.93Z" fill="#5244F2"/>
<path d="M837.697 716.93V726.631H798.519L791.751 716.93H837.697ZM798.519 744.211H837.632V754.042H798.519V744.211ZM798.519 730.538H827.74V740.304H798.519V730.538Z" fill="#5244F2"/>
<path d="M179.642 884H157V862.365H179.642V884Z" fill="#464647" fill-opacity="0.74"/>
<path d="M256.464 831.581V853.362H214.084V884H191.442V831.581H256.464ZM191.442 801.234H278.525V822.869H191.442V801.234Z" fill="#464647" fill-opacity="0.74"/>
<path d="M290.232 801.234H312.874V884H290.232V801.234Z" fill="#464647" fill-opacity="0.74"/>
<path d="M324.674 801.234H342.091L392.454 846.247V801.234H415.241V884H398.259L347.316 839.422V884H324.674V801.234Z" fill="#464647" fill-opacity="0.74"/>
<path d="M424.686 884L448.053 840.584H483.467L477.661 829.548H454.294L469.098 801.234H487.966L532.378 884H506.834L494.788 862.219H462.422L450.23 884H424.686Z" fill="#464647" fill-opacity="0.74"/>
<path d="M541.673 801.234H559.089L609.452 846.247V801.234H632.239V884H615.258L564.314 839.422V884H541.673V801.234Z" fill="#464647" fill-opacity="0.74"/>
<path d="M732.831 862.365H666.793V822.869H732.831V801.234H660.843C654.747 801.234 650.393 802.782 647.78 805.88C645.265 808.978 644.007 812.995 644.007 817.932V865.995C644.007 871.512 645.652 875.917 648.941 879.208C652.231 882.403 656.779 884 662.584 884H732.831V862.365Z" fill="#464647" fill-opacity="0.74"/>
<path d="M744.785 862.074H831.868V884H744.785V862.074ZM744.785 831.581H809.807V853.362H744.785V831.581ZM744.785 801.234H832.013V822.869H744.785V801.234Z" fill="#464647" fill-opacity="0.74"/>
<path d="M188.126 562.892H162.16V494.984H259.648V754.768H188.126V562.892Z" fill="#202148"/>
<path d="M532.956 562.892H367.134V686.404H532.956V562.892ZM296.068 754.768V494.984H604.478V754.768H296.068Z" fill="#202148"/>
<path d="M188.126 236.909H162.16V169H259.648V428.784H188.126V236.909Z" fill="#202148"/>
<path d="M532.956 236.909H367.134V360.42H532.956V236.909ZM296.068 428.784V169H604.478V428.784H296.068Z" fill="#202148"/>
<path d="M690.226 304.948H638.293V169.131H833.27V688.7H690.226V304.948Z" fill="#5244F2"/>
<path d="M652.647 587.057H866V695.96H652.647V587.057Z" fill="white"/>
<path d="M714.147 612.646H699.439L692.67 602.945H740.569V612.646H724.364V640.057H714.147V612.646Z" fill="#5244F2"/>
<path d="M745.891 630.225H784.939V640.057H745.891V630.225ZM745.891 616.552H775.046V626.319H745.891V616.552ZM745.891 602.945H785.004V612.646H745.891V602.945Z" fill="#5244F2"/>
<path d="M790.187 602.945H797.996L820.579 623.128V602.945H830.796V640.057H823.182L800.339 620.068V640.057H790.187V602.945Z" fill="#5244F2"/>
<path d="M714.147 669.276H699.439L692.67 659.574H740.569V669.276H724.364V696.686H714.147V669.276Z" fill="#5244F2"/>
<path d="M745.891 686.855H784.939V696.686H745.891V686.855ZM745.891 673.182H775.046V682.948H745.891V673.182ZM745.891 659.574H785.004V669.276H745.891V659.574Z" fill="#5244F2"/>
<path d="M790.187 659.574H797.996L820.579 679.758V659.574H830.796V696.686H823.182L800.339 676.698V696.686H790.187V659.574Z" fill="#5244F2"/>
<path d="M730.286 716.93C733.02 716.93 734.95 717.625 736.078 719.014C737.25 720.403 737.835 722.204 737.835 724.418V745.969C737.835 748.443 737.098 750.418 735.623 751.894C734.148 753.326 732.108 754.042 729.505 754.042H702.042C699.439 754.042 697.399 753.326 695.924 751.894C694.449 750.418 693.712 748.443 693.712 745.969V731.905H703.929V744.341H727.618V726.631H693.712V724.418C693.712 722.204 694.276 720.403 695.404 719.014C696.575 717.625 698.528 716.93 701.261 716.93H730.286Z" fill="#5244F2"/>
<path d="M740.145 716.93H754.723L777.305 737.114V716.93H787.523V754.042H779.909L757.066 734.054V754.042H746.913V726.631L740.145 716.93Z" fill="#5244F2"/>
<path d="M837.697 716.93V726.631H798.519L791.751 716.93H837.697ZM798.519 744.211H837.632V754.042H798.519V744.211ZM798.519 730.538H827.74V740.304H798.519V730.538Z" fill="#5244F2"/>
<path d="M179.642 884H157V862.365H179.642V884Z" fill="#464647" fill-opacity="0.74"/>
<path d="M256.464 831.581V853.362H214.084V884H191.442V831.581H256.464ZM191.442 801.234H278.525V822.869H191.442V801.234Z" fill="#464647" fill-opacity="0.74"/>
<path d="M290.232 801.234H312.874V884H290.232V801.234Z" fill="#464647" fill-opacity="0.74"/>
<path d="M324.674 801.234H342.091L392.454 846.247V801.234H415.241V884H398.259L347.316 839.422V884H324.674V801.234Z" fill="#464647" fill-opacity="0.74"/>
<path d="M424.686 884L448.053 840.584H483.467L477.661 829.548H454.294L469.098 801.234H487.966L532.378 884H506.834L494.788 862.219H462.422L450.23 884H424.686Z" fill="#464647" fill-opacity="0.74"/>
<path d="M541.673 801.234H559.089L609.452 846.247V801.234H632.239V884H615.258L564.314 839.422V884H541.673V801.234Z" fill="#464647" fill-opacity="0.74"/>
<path d="M732.831 862.365H666.793V822.869H732.831V801.234H660.843C654.747 801.234 650.393 802.782 647.78 805.88C645.265 808.978 644.007 812.995 644.007 817.932V865.995C644.007 871.512 645.652 875.917 648.941 879.208C652.231 882.403 656.779 884 662.584 884H732.831V862.365Z" fill="#464647" fill-opacity="0.74"/>
<path d="M744.785 862.074H831.868V884H744.785V862.074ZM744.785 831.581H809.807V853.362H744.785V831.581ZM744.785 801.234H832.013V822.869H744.785V801.234Z" fill="#464647" fill-opacity="0.74"/>
</svg>
